<svg id="visual" viewBox="0 0 1366 768" width="1366" height="768" xmlns="http://www.w3.org/2000/svg" xmlns:xlink="http://www.w3.org/1999/xlink" version="1.1"><g stroke-width="1" stroke-linejoin="bevel"><path d="M681 367L660 309L618.7 379Z" fill="#0c2435" stroke="#0c2435"></path><path d="M660 309L606.7 314L618.7 379Z" fill="#277297" stroke="#277297"></path><path d="M606.7 314L571.4 319L618.7 379Z" fill="#19435d" stroke="#19435d"></path><path d="M571.4 319L566.4 380L618.7 379Z" fill="#246688" stroke="#246688"></path><path d="M566.4 380L598.7 435L618.7 379Z" fill="#00101c" stroke="#00101c"></path><path d="M618.7 379L706 448L681 367Z" fill="#297ea6" stroke="#297ea6"></path><path d="M735.3 262L658 247L660 309Z" fill="#15384f" stroke="#15384f"></path><path d="M660 309L658 247L606.7 314Z" fill="#1d4e6b" stroke="#1d4e6b"></path><path d="M606.7 314L594.7 247L571.4 319Z" fill="#1d4e6b" stroke="#1d4e6b"></path><path d="M706 448L734.3 407L681 367Z" fill="#081a28" stroke="#081a28"></path><path d="M681 367L753.3 337L660 309Z" fill="#246688" stroke="#246688"></path><path d="M734.3 407L753.3 337L681 367Z" fill="#246688" stroke="#246688"></path><path d="M658 247L594.7 247L606.7 314Z" fill="#112e42" stroke="#112e42"></path><path d="M598.7 435L706 448L618.7 379Z" fill="#112e42" stroke="#112e42"></path><path d="M753.3 337L735.3 262L660 309Z" fill="#297ea6" stroke="#297ea6"></path><path d="M566.4 380L554.4 440L598.7 435Z" fill="#15384f" stroke="#15384f"></path><path d="M682 505L733.3 465L706 448Z" fill="#112e42" stroke="#112e42"></path><path d="M473.1 423L554.4 440L566.4 380Z" fill="#00101c" stroke="#00101c"></path><path d="M594.7 247L523.4 278L571.4 319Z" fill="#0c2435" stroke="#0c2435"></path><path d="M571.4 319L468.1 372L566.4 380Z" fill="#081a28" stroke="#081a28"></path><path d="M697 188L600.7 208L658 247Z" fill="#246688" stroke="#246688"></path><path d="M658 247L600.7 208L594.7 247Z" fill="#277297" stroke="#277297"></path><path d="M594.7 247L502.1 258L523.4 278Z" fill="#205a7a" stroke="#205a7a"></path><path d="M706 448L733.3 465L734.3 407Z" fill="#112e42" stroke="#112e42"></path><path d="M734.3 407L826.6 392L753.3 337Z" fill="#277297" stroke="#277297"></path><path d="M682 505L706 448L598.7 435Z" fill="#277297" stroke="#277297"></path><path d="M554.4 440L589.7 495L598.7 435Z" fill="#15384f" stroke="#15384f"></path><path d="M589.7 495L682 505L598.7 435Z" fill="#0c2435" stroke="#0c2435"></path><path d="M735.3 262L697 188L658 247Z" fill="#205a7a" stroke="#205a7a"></path><path d="M524.4 173L502.1 258L594.7 247Z" fill="#0c2435" stroke="#0c2435"></path><path d="M523.4 278L468.1 372L571.4 319Z" fill="#15384f" stroke="#15384f"></path><path d="M735.3 262L732.3 193L697 188Z" fill="#205a7a" stroke="#205a7a"></path><path d="M806.6 211L732.3 193L735.3 262Z" fill="#081a28" stroke="#081a28"></path><path d="M452.1 342L468.1 372L523.4 278Z" fill="#19435d" stroke="#19435d"></path><path d="M554.4 440L548.4 516L589.7 495Z" fill="#277297" stroke="#277297"></path><path d="M839.6 338L803.6 252L753.3 337Z" fill="#19435d" stroke="#19435d"></path><path d="M753.3 337L803.6 252L735.3 262Z" fill="#277297" stroke="#277297"></path><path d="M835.6 433L826.6 392L734.3 407Z" fill="#112e42" stroke="#112e42"></path><path d="M468.1 372L473.1 423L566.4 380Z" fill="#112e42" stroke="#112e42"></path><path d="M502.1 258L452.1 342L523.4 278Z" fill="#205a7a" stroke="#205a7a"></path><path d="M468.1 372L421.8 388L473.1 423Z" fill="#00101c" stroke="#00101c"></path><path d="M479.1 523L548.4 516L554.4 440Z" fill="#112e42" stroke="#112e42"></path><path d="M589.7 495L599.7 562L682 505Z" fill="#1d4e6b" stroke="#1d4e6b"></path><path d="M826.6 392L839.6 338L753.3 337Z" fill="#15384f" stroke="#15384f"></path><path d="M660 596L740.3 531L682 505Z" fill="#112e42" stroke="#112e42"></path><path d="M682 505L740.3 531L733.3 465Z" fill="#081a28" stroke="#081a28"></path><path d="M733.3 465L835.6 433L734.3 407Z" fill="#277297" stroke="#277297"></path><path d="M844.6 524L835.6 433L733.3 465Z" fill="#00101c" stroke="#00101c"></path><path d="M826.6 392L872.9 395L839.6 338Z" fill="#205a7a" stroke="#205a7a"></path><path d="M862.9 257L806.6 211L803.6 252Z" fill="#15384f" stroke="#15384f"></path><path d="M803.6 252L806.6 211L735.3 262Z" fill="#205a7a" stroke="#205a7a"></path><path d="M614.7 134L524.4 173L600.7 208Z" fill="#246688" stroke="#246688"></path><path d="M600.7 208L524.4 173L594.7 247Z" fill="#297ea6" stroke="#297ea6"></path><path d="M502.1 258L427.8 234L452.1 342Z" fill="#19435d" stroke="#19435d"></path><path d="M665 106L614.7 134L697 188Z" fill="#081a28" stroke="#081a28"></path><path d="M697 188L614.7 134L600.7 208Z" fill="#112e42" stroke="#112e42"></path><path d="M665 106L697 188L740.3 115Z" fill="#112e42" stroke="#112e42"></path><path d="M548.4 516L599.7 562L589.7 495Z" fill="#246688" stroke="#246688"></path><path d="M933.2 303L861.9 296L839.6 338Z" fill="#246688" stroke="#246688"></path><path d="M839.6 338L861.9 296L803.6 252Z" fill="#15384f" stroke="#15384f"></path><path d="M395.8 333L421.8 388L452.1 342Z" fill="#00101c" stroke="#00101c"></path><path d="M452.1 342L421.8 388L468.1 372Z" fill="#112e42" stroke="#112e42"></path><path d="M473.1 423L479.1 523L554.4 440Z" fill="#1d4e6b" stroke="#1d4e6b"></path><path d="M524.4 173L471.1 197L502.1 258Z" fill="#081a28" stroke="#081a28"></path><path d="M861.9 444L872.9 395L835.6 433Z" fill="#277297" stroke="#277297"></path><path d="M835.6 433L872.9 395L826.6 392Z" fill="#15384f" stroke="#15384f"></path><path d="M933.2 303L862.9 257L861.9 296Z" fill="#1d4e6b" stroke="#1d4e6b"></path><path d="M861.9 296L862.9 257L803.6 252Z" fill="#297ea6" stroke="#297ea6"></path><path d="M844.6 524L861.9 444L835.6 433Z" fill="#0c2435" stroke="#0c2435"></path><path d="M405.8 437L479.1 523L473.1 423Z" fill="#246688" stroke="#246688"></path><path d="M548.4 516L530.4 588L599.7 562Z" fill="#112e42" stroke="#112e42"></path><path d="M740.3 115L697 188L732.3 193Z" fill="#19435d" stroke="#19435d"></path><path d="M614.7 134L564.4 102L524.4 173Z" fill="#246688" stroke="#246688"></path><path d="M524.4 173L480.1 125L471.1 197Z" fill="#112e42" stroke="#112e42"></path><path d="M471.1 197L427.8 234L502.1 258Z" fill="#0c2435" stroke="#0c2435"></path><path d="M660 596L761.3 564L740.3 531Z" fill="#1d4e6b" stroke="#1d4e6b"></path><path d="M740.3 531L844.6 524L733.3 465Z" fill="#297ea6" stroke="#297ea6"></path><path d="M600.7 624L660 596L599.7 562Z" fill="#00101c" stroke="#00101c"></path><path d="M599.7 562L660 596L682 505Z" fill="#081a28" stroke="#081a28"></path><path d="M427.8 234L395.8 333L452.1 342Z" fill="#1d4e6b" stroke="#1d4e6b"></path><path d="M421.8 388L405.8 437L473.1 423Z" fill="#246688" stroke="#246688"></path><path d="M835.6 151L732.3 193L806.6 211Z" fill="#112e42" stroke="#112e42"></path><path d="M835.6 151L740.3 115L732.3 193Z" fill="#081a28" stroke="#081a28"></path><path d="M351.5 408L405.8 437L421.8 388Z" fill="#19435d" stroke="#19435d"></path><path d="M602.7 59L564.4 102L614.7 134Z" fill="#081a28" stroke="#081a28"></path><path d="M471.1 197L410.8 185L427.8 234Z" fill="#081a28" stroke="#081a28"></path><path d="M478.1 599L530.4 588L479.1 523Z" fill="#00101c" stroke="#00101c"></path><path d="M479.1 523L530.4 588L548.4 516Z" fill="#0c2435" stroke="#0c2435"></path><path d="M761.3 564L844.6 524L740.3 531Z" fill="#1d4e6b" stroke="#1d4e6b"></path><path d="M861.9 444L934.2 407L872.9 395Z" fill="#112e42" stroke="#112e42"></path><path d="M740.3 115L696 81L665 106Z" fill="#19435d" stroke="#19435d"></path><path d="M665 106L602.7 59L614.7 134Z" fill="#081a28" stroke="#081a28"></path><path d="M870.9 172L835.6 151L806.6 211Z" fill="#0c2435" stroke="#0c2435"></path><path d="M740.3 115L774.3 73L696 81Z" fill="#297ea6" stroke="#297ea6"></path><path d="M564.4 102L480.1 125L524.4 173Z" fill="#00101c" stroke="#00101c"></path><path d="M566.4 623L600.7 624L599.7 562Z" fill="#19435d" stroke="#19435d"></path><path d="M761.3 652L793.6 592L761.3 564Z" fill="#112e42" stroke="#112e42"></path><path d="M480.1 125L410.8 185L471.1 197Z" fill="#205a7a" stroke="#205a7a"></path><path d="M427.8 234L355.5 267L395.8 333Z" fill="#277297" stroke="#277297"></path><path d="M844.6 524L883.9 503L861.9 444Z" fill="#19435d" stroke="#19435d"></path><path d="M938.2 204L870.9 172L862.9 257Z" fill="#0c2435" stroke="#0c2435"></path><path d="M862.9 257L870.9 172L806.6 211Z" fill="#112e42" stroke="#112e42"></path><path d="M933.2 303L839.6 338L872.9 395Z" fill="#081a28" stroke="#081a28"></path><path d="M405.8 437L424.8 530L479.1 523Z" fill="#15384f" stroke="#15384f"></path><path d="M761.3 652L761.3 564L660 596Z" fill="#277297" stroke="#277297"></path><path d="M761.3 564L793.6 592L844.6 524Z" fill="#297ea6" stroke="#297ea6"></path><path d="M844.6 524L911.9 560L883.9 503Z" fill="#00101c" stroke="#00101c"></path><path d="M530.4 588L566.4 623L599.7 562Z" fill="#00101c" stroke="#00101c"></path><path d="M476.1 645L566.4 623L530.4 588Z" fill="#297ea6" stroke="#297ea6"></path><path d="M696 81L602.7 59L665 106Z" fill="#0c2435" stroke="#0c2435"></path><path d="M564.4 102L476.1 84L480.1 125Z" fill="#277297" stroke="#277297"></path><path d="M934.2 407L933.2 303L872.9 395Z" fill="#112e42" stroke="#112e42"></path><path d="M953.2 440L934.2 407L861.9 444Z" fill="#246688" stroke="#246688"></path><path d="M342.5 311L351.5 408L395.8 333Z" fill="#00101c" stroke="#00101c"></path><path d="M395.8 333L351.5 408L421.8 388Z" fill="#00101c" stroke="#00101c"></path><path d="M405.8 437L327.5 534L424.8 530Z" fill="#277297" stroke="#277297"></path><path d="M410.8 185L355.5 267L427.8 234Z" fill="#246688" stroke="#246688"></path><path d="M424.8 530L478.1 599L479.1 523Z" fill="#277297" stroke="#277297"></path><path d="M814.6 65L774.3 73L835.6 151Z" fill="#0c2435" stroke="#0c2435"></path><path d="M835.6 151L774.3 73L740.3 115Z" fill="#1d4e6b" stroke="#1d4e6b"></path><path d="M696 81L665 0L602.7 59Z" fill="#15384f" stroke="#15384f"></path><path d="M355.5 267L342.5 311L395.8 333Z" fill="#297ea6" stroke="#297ea6"></path><path d="M559.4 38L476.1 84L564.4 102Z" fill="#277297" stroke="#277297"></path><path d="M480.1 125L419.8 117L410.8 185Z" fill="#297ea6" stroke="#297ea6"></path><path d="M410.8 185L340.5 186L355.5 267Z" fill="#246688" stroke="#246688"></path><path d="M598.7 687L600.7 624L566.4 623Z" fill="#1d4e6b" stroke="#1d4e6b"></path><path d="M598.7 687L665 662L600.7 624Z" fill="#15384f" stroke="#15384f"></path><path d="M600.7 624L665 662L660 596Z" fill="#297ea6" stroke="#297ea6"></path><path d="M590.7 0L559.4 38L602.7 59Z" fill="#15384f" stroke="#15384f"></path><path d="M602.7 59L559.4 38L564.4 102Z" fill="#1d4e6b" stroke="#1d4e6b"></path><path d="M883.9 503L953.2 440L861.9 444Z" fill="#297ea6" stroke="#297ea6"></path><path d="M1006.5 279L963.2 276L1017.5 334Z" fill="#277297" stroke="#277297"></path><path d="M970.2 515L953.2 440L883.9 503Z" fill="#15384f" stroke="#15384f"></path><path d="M476.1 84L419.8 117L480.1 125Z" fill="#00101c" stroke="#00101c"></path><path d="M963.2 276L933.2 303L1017.5 334Z" fill="#00101c" stroke="#00101c"></path><path d="M933.2 303L963.2 276L862.9 257Z" fill="#205a7a" stroke="#205a7a"></path><path d="M665 662L761.3 652L660 596Z" fill="#19435d" stroke="#19435d"></path><path d="M831.6 635L911.9 560L844.6 524Z" fill="#277297" stroke="#277297"></path><path d="M963.2 276L938.2 204L862.9 257Z" fill="#297ea6" stroke="#297ea6"></path><path d="M878.9 69L814.6 65L835.6 151Z" fill="#0c2435" stroke="#0c2435"></path><path d="M892.9 119L835.6 151L870.9 172Z" fill="#19435d" stroke="#19435d"></path><path d="M768.3 0L665 0L696 81Z" fill="#297ea6" stroke="#297ea6"></path><path d="M287.2 405L322.5 424L351.5 408Z" fill="#15384f" stroke="#15384f"></path><path d="M351.5 408L322.5 424L405.8 437Z" fill="#297ea6" stroke="#297ea6"></path><path d="M424.8 530L386.8 572L478.1 599Z" fill="#297ea6" stroke="#297ea6"></path><path d="M943.2 135L892.9 119L870.9 172Z" fill="#277297" stroke="#277297"></path><path d="M831.6 635L844.6 524L793.6 592Z" fill="#297ea6" stroke="#297ea6"></path><path d="M327.5 534L386.8 572L424.8 530Z" fill="#1d4e6b" stroke="#1d4e6b"></path><path d="M478.1 599L476.1 645L530.4 588Z" fill="#0c2435" stroke="#0c2435"></path><path d="M407.8 619L476.1 645L478.1 599Z" fill="#297ea6" stroke="#297ea6"></path><path d="M528.4 725L598.7 687L566.4 623Z" fill="#15384f" stroke="#15384f"></path><path d="M665 662L726.3 713L761.3 652Z" fill="#112e42" stroke="#112e42"></path><path d="M761.3 652L831.6 635L793.6 592Z" fill="#00101c" stroke="#00101c"></path><path d="M419.8 117L340.5 186L410.8 185Z" fill="#0c2435" stroke="#0c2435"></path><path d="M355.5 267L288.2 252L342.5 311Z" fill="#00101c" stroke="#00101c"></path><path d="M342.5 311L287.2 405L351.5 408Z" fill="#15384f" stroke="#15384f"></path><path d="M768.3 0L696 81L774.3 73Z" fill="#1d4e6b" stroke="#1d4e6b"></path><path d="M598.7 687L669 695L665 662Z" fill="#19435d" stroke="#19435d"></path><path d="M761.3 652L818.6 695L831.6 635Z" fill="#297ea6" stroke="#297ea6"></path><path d="M665 0L590.7 0L602.7 59Z" fill="#246688" stroke="#246688"></path><path d="M454.1 0L426.8 61L476.1 84Z" fill="#246688" stroke="#246688"></path><path d="M476.1 84L426.8 61L419.8 117Z" fill="#081a28" stroke="#081a28"></path><path d="M525.4 0L476.1 84L559.4 38Z" fill="#0c2435" stroke="#0c2435"></path><path d="M419.8 117L322.5 126L340.5 186Z" fill="#081a28" stroke="#081a28"></path><path d="M386.8 572L407.8 619L478.1 599Z" fill="#246688" stroke="#246688"></path><path d="M248.2 315L287.2 405L342.5 311Z" fill="#0c2435" stroke="#0c2435"></path><path d="M322.5 424L327.5 534L405.8 437Z" fill="#00101c" stroke="#00101c"></path><path d="M386.8 572L327.5 632L407.8 619Z" fill="#205a7a" stroke="#205a7a"></path><path d="M952.2 60L878.9 69L892.9 119Z" fill="#112e42" stroke="#112e42"></path><path d="M892.9 119L878.9 69L835.6 151Z" fill="#0c2435" stroke="#0c2435"></path><path d="M802.6 0L768.3 0L774.3 73Z" fill="#297ea6" stroke="#297ea6"></path><path d="M287.2 405L292.2 440L322.5 424Z" fill="#00101c" stroke="#00101c"></path><path d="M911.9 560L970.2 515L883.9 503Z" fill="#081a28" stroke="#081a28"></path><path d="M1017.5 334L933.2 303L934.2 407Z" fill="#15384f" stroke="#15384f"></path><path d="M971.2 555L970.2 515L911.9 560Z" fill="#205a7a" stroke="#205a7a"></path><path d="M938.2 204L943.2 135L870.9 172Z" fill="#246688" stroke="#246688"></path><path d="M1028.5 196L943.2 135L938.2 204Z" fill="#19435d" stroke="#19435d"></path><path d="M590.7 0L525.4 0L559.4 38Z" fill="#0c2435" stroke="#0c2435"></path><path d="M1017.5 334L934.2 407L1021.5 387Z" fill="#112e42" stroke="#112e42"></path><path d="M963.2 276L1028.5 196L938.2 204Z" fill="#277297" stroke="#277297"></path><path d="M292.2 440L327.5 534L322.5 424Z" fill="#205a7a" stroke="#205a7a"></path><path d="M802.6 0L774.3 73L814.6 65Z" fill="#081a28" stroke="#081a28"></path><path d="M267.2 194L288.2 252L340.5 186Z" fill="#15384f" stroke="#15384f"></path><path d="M340.5 186L288.2 252L355.5 267Z" fill="#081a28" stroke="#081a28"></path><path d="M1021.5 387L934.2 407L953.2 440Z" fill="#00101c" stroke="#00101c"></path><path d="M327.5 534L339.5 563L386.8 572Z" fill="#081a28" stroke="#081a28"></path><path d="M669 695L726.3 713L665 662Z" fill="#277297" stroke="#277297"></path><path d="M704 768L726.3 713L669 695Z" fill="#205a7a" stroke="#205a7a"></path><path d="M1028.5 459L1021.5 387L953.2 440Z" fill="#15384f" stroke="#15384f"></path><path d="M878.9 69L802.6 0L814.6 65Z" fill="#19435d" stroke="#19435d"></path><path d="M888.9 701L895.9 636L831.6 635Z" fill="#19435d" stroke="#19435d"></path><path d="M831.6 635L895.9 636L911.9 560Z" fill="#1d4e6b" stroke="#1d4e6b"></path><path d="M957.2 657L971.2 555L911.9 560Z" fill="#00101c" stroke="#00101c"></path><path d="M970.2 515L1028.5 459L953.2 440Z" fill="#297ea6" stroke="#297ea6"></path><path d="M726.3 713L818.6 695L761.3 652Z" fill="#205a7a" stroke="#205a7a"></path><path d="M359.5 52L322.5 126L419.8 117Z" fill="#19435d" stroke="#19435d"></path><path d="M500.1 717L528.4 725L566.4 623Z" fill="#1d4e6b" stroke="#1d4e6b"></path><path d="M598.7 687L636.7 768L669 695Z" fill="#112e42" stroke="#112e42"></path><path d="M500.1 717L566.4 623L476.1 645Z" fill="#277297" stroke="#277297"></path><path d="M500.1 717L476.1 645L432.8 711Z" fill="#00101c" stroke="#00101c"></path><path d="M525.4 0L454.1 0L476.1 84Z" fill="#246688" stroke="#246688"></path><path d="M426.8 61L359.5 52L419.8 117Z" fill="#081a28" stroke="#081a28"></path><path d="M432.8 711L476.1 645L407.8 619Z" fill="#1d4e6b" stroke="#1d4e6b"></path><path d="M179.9 270L248.2 315L288.2 252Z" fill="#246688" stroke="#246688"></path><path d="M288.2 252L248.2 315L342.5 311Z" fill="#297ea6" stroke="#297ea6"></path><path d="M217.9 429L284.2 522L292.2 440Z" fill="#00101c" stroke="#00101c"></path><path d="M1048.5 492L1028.5 459L970.2 515Z" fill="#1d4e6b" stroke="#1d4e6b"></path><path d="M1073.8 237L1006.5 279L1108.8 317Z" fill="#112e42" stroke="#112e42"></path><path d="M327.5 534L277.2 553L339.5 563Z" fill="#15384f" stroke="#15384f"></path><path d="M345.5 714L432.8 711L407.8 619Z" fill="#19435d" stroke="#19435d"></path><path d="M292.2 440L284.2 522L327.5 534Z" fill="#15384f" stroke="#15384f"></path><path d="M217.9 429L292.2 440L287.2 405Z" fill="#19435d" stroke="#19435d"></path><path d="M279.2 143L267.2 194L340.5 186Z" fill="#297ea6" stroke="#297ea6"></path><path d="M384.8 0L359.5 52L426.8 61Z" fill="#205a7a" stroke="#205a7a"></path><path d="M322.5 126L279.2 143L340.5 186Z" fill="#15384f" stroke="#15384f"></path><path d="M1073.8 237L1028.5 196L1006.5 279Z" fill="#0c2435" stroke="#0c2435"></path><path d="M1006.5 279L1028.5 196L963.2 276Z" fill="#15384f" stroke="#15384f"></path><path d="M943.2 135L952.2 60L892.9 119Z" fill="#277297" stroke="#277297"></path><path d="M878.9 69L906.9 0L802.6 0Z" fill="#1d4e6b" stroke="#1d4e6b"></path><path d="M1006.5 279L1017.5 334L1108.8 317Z" fill="#0c2435" stroke="#0c2435"></path><path d="M249.2 88L279.2 143L322.5 126Z" fill="#246688" stroke="#246688"></path><path d="M1026.5 103L952.2 60L943.2 135Z" fill="#081a28" stroke="#081a28"></path><path d="M571.4 768L598.7 687L528.4 725Z" fill="#00101c" stroke="#00101c"></path><path d="M571.4 768L636.7 768L598.7 687Z" fill="#277297" stroke="#277297"></path><path d="M726.3 713L769.3 768L818.6 695Z" fill="#297ea6" stroke="#297ea6"></path><path d="M327.5 632L386.8 572L339.5 563Z" fill="#112e42" stroke="#112e42"></path><path d="M483.1 768L571.4 768L528.4 725Z" fill="#0c2435" stroke="#0c2435"></path><path d="M199.9 520L277.2 553L284.2 522Z" fill="#0c2435" stroke="#0c2435"></path><path d="M284.2 522L277.2 553L327.5 534Z" fill="#081a28" stroke="#081a28"></path><path d="M636.7 768L704 768L669 695Z" fill="#297ea6" stroke="#297ea6"></path><path d="M277.2 553L327.5 632L339.5 563Z" fill="#0c2435" stroke="#0c2435"></path><path d="M483.1 768L528.4 725L500.1 717Z" fill="#19435d" stroke="#19435d"></path><path d="M971.2 555L1048.5 492L970.2 515Z" fill="#277297" stroke="#277297"></path><path d="M1115.8 396L1108.8 317L1021.5 387Z" fill="#297ea6" stroke="#297ea6"></path><path d="M1030.5 590L1048.5 492L971.2 555Z" fill="#297ea6" stroke="#297ea6"></path><path d="M881.9 768L888.9 701L818.6 695Z" fill="#0c2435" stroke="#0c2435"></path><path d="M818.6 695L888.9 701L831.6 635Z" fill="#205a7a" stroke="#205a7a"></path><path d="M895.9 636L957.2 657L911.9 560Z" fill="#1d4e6b" stroke="#1d4e6b"></path><path d="M454.1 0L384.8 0L426.8 61Z" fill="#00101c" stroke="#00101c"></path><path d="M249.2 88L228.9 136L279.2 143Z" fill="#0c2435" stroke="#0c2435"></path><path d="M210.9 383L287.2 405L248.2 315Z" fill="#205a7a" stroke="#205a7a"></path><path d="M210.9 383L217.9 429L287.2 405Z" fill="#1d4e6b" stroke="#1d4e6b"></path><path d="M952.2 60L906.9 0L878.9 69Z" fill="#277297" stroke="#277297"></path><path d="M196.9 332L210.9 383L248.2 315Z" fill="#1d4e6b" stroke="#1d4e6b"></path><path d="M196.9 332L248.2 315L179.9 270Z" fill="#15384f" stroke="#15384f"></path><path d="M704 768L769.3 768L726.3 713Z" fill="#297ea6" stroke="#297ea6"></path><path d="M888.9 701L957.2 657L895.9 636Z" fill="#297ea6" stroke="#297ea6"></path><path d="M1108.8 317L1017.5 334L1021.5 387Z" fill="#205a7a" stroke="#205a7a"></path><path d="M1028.5 196L1026.5 103L943.2 135Z" fill="#112e42" stroke="#112e42"></path><path d="M179.9 270L288.2 252L189.9 199Z" fill="#00101c" stroke="#00101c"></path><path d="M127.6 472L199.9 520L217.9 429Z" fill="#277297" stroke="#277297"></path><path d="M769.3 768L806.6 768L818.6 695Z" fill="#0c2435" stroke="#0c2435"></path><path d="M888.9 701L945.2 714L957.2 657Z" fill="#00101c" stroke="#00101c"></path><path d="M432.8 711L483.1 768L500.1 717Z" fill="#205a7a" stroke="#205a7a"></path><path d="M395.8 768L483.1 768L432.8 711Z" fill="#0c2435" stroke="#0c2435"></path><path d="M1067.8 118L1026.5 103L1028.5 196Z" fill="#297ea6" stroke="#297ea6"></path><path d="M952.2 60L958.2 0L906.9 0Z" fill="#19435d" stroke="#19435d"></path><path d="M957.2 657L1030.5 590L971.2 555Z" fill="#297ea6" stroke="#297ea6"></path><path d="M1021.5 387L1028.5 459L1110.8 432Z" fill="#112e42" stroke="#112e42"></path><path d="M1115.8 396L1021.5 387L1110.8 432Z" fill="#205a7a" stroke="#205a7a"></path><path d="M1074.8 68L1024.5 63L1026.5 103Z" fill="#246688" stroke="#246688"></path><path d="M249.2 88L322.5 126L359.5 52Z" fill="#081a28" stroke="#081a28"></path><path d="M279.2 143L228.9 136L267.2 194Z" fill="#277297" stroke="#277297"></path><path d="M1003.5 0L958.2 0L952.2 60Z" fill="#00101c" stroke="#00101c"></path><path d="M189.9 199L288.2 252L267.2 194Z" fill="#112e42" stroke="#112e42"></path><path d="M133.6 383L217.9 429L210.9 383Z" fill="#205a7a" stroke="#205a7a"></path><path d="M284.2 0L249.2 88L359.5 52Z" fill="#15384f" stroke="#15384f"></path><path d="M1110.8 432L1028.5 459L1048.5 492Z" fill="#112e42" stroke="#112e42"></path><path d="M280.2 658L345.5 714L327.5 632Z" fill="#112e42" stroke="#112e42"></path><path d="M327.5 632L345.5 714L407.8 619Z" fill="#0c2435" stroke="#0c2435"></path><path d="M280.2 658L327.5 632L277.2 553Z" fill="#297ea6" stroke="#297ea6"></path><path d="M1100.8 517L1110.8 432L1048.5 492Z" fill="#246688" stroke="#246688"></path><path d="M384.8 0L322.5 0L359.5 52Z" fill="#00101c" stroke="#00101c"></path><path d="M957.2 657L1037.5 654L1030.5 590Z" fill="#246688" stroke="#246688"></path><path d="M881.9 768L945.2 714L888.9 701Z" fill="#0c2435" stroke="#0c2435"></path><path d="M1067.8 118L1028.5 196L1117.8 217Z" fill="#081a28" stroke="#081a28"></path><path d="M1026.5 103L1024.5 63L952.2 60Z" fill="#0c2435" stroke="#0c2435"></path><path d="M133.6 383L210.9 383L196.9 332Z" fill="#112e42" stroke="#112e42"></path><path d="M217.9 429L199.9 520L284.2 522Z" fill="#246688" stroke="#246688"></path><path d="M157.6 169L189.9 199L228.9 136Z" fill="#112e42" stroke="#112e42"></path><path d="M228.9 136L189.9 199L267.2 194Z" fill="#15384f" stroke="#15384f"></path><path d="M216.9 651L280.2 658L277.2 553Z" fill="#19435d" stroke="#19435d"></path><path d="M1030.5 590L1069.8 570L1048.5 492Z" fill="#0c2435" stroke="#0c2435"></path><path d="M1111.8 641L1069.8 570L1030.5 590Z" fill="#277297" stroke="#277297"></path><path d="M1117.8 217L1028.5 196L1073.8 237Z" fill="#15384f" stroke="#15384f"></path><path d="M806.6 768L881.9 768L818.6 695Z" fill="#0c2435" stroke="#0c2435"></path><path d="M1069.8 570L1100.8 517L1048.5 492Z" fill="#112e42" stroke="#112e42"></path><path d="M1167.1 409L1151.1 343L1115.8 396Z" fill="#19435d" stroke="#19435d"></path><path d="M325.5 768L395.8 768L345.5 714Z" fill="#00101c" stroke="#00101c"></path><path d="M345.5 714L395.8 768L432.8 711Z" fill="#15384f" stroke="#15384f"></path><path d="M1108.8 317L1117.8 217L1073.8 237Z" fill="#00101c" stroke="#00101c"></path><path d="M1166.1 253L1117.8 217L1108.8 317Z" fill="#081a28" stroke="#081a28"></path><path d="M1017.5 725L957.2 657L945.2 714Z" fill="#15384f" stroke="#15384f"></path><path d="M1017.5 725L1037.5 654L957.2 657Z" fill="#246688" stroke="#246688"></path><path d="M1167.1 487L1151.1 455L1100.8 517Z" fill="#205a7a" stroke="#205a7a"></path><path d="M189.9 199L152.6 268L179.9 270Z" fill="#15384f" stroke="#15384f"></path><path d="M179.9 270L152.6 268L196.9 332Z" fill="#00101c" stroke="#00101c"></path><path d="M157.6 169L152.6 268L189.9 199Z" fill="#246688" stroke="#246688"></path><path d="M1074.8 68L1003.5 0L1024.5 63Z" fill="#081a28" stroke="#081a28"></path><path d="M1024.5 63L1003.5 0L952.2 60Z" fill="#246688" stroke="#246688"></path><path d="M322.5 0L284.2 0L359.5 52Z" fill="#1d4e6b" stroke="#1d4e6b"></path><path d="M249.2 88L226.9 65L228.9 136Z" fill="#19435d" stroke="#19435d"></path><path d="M284.2 0L226.9 65L249.2 88Z" fill="#081a28" stroke="#081a28"></path><path d="M1167.1 409L1115.8 396L1110.8 432Z" fill="#0c2435" stroke="#0c2435"></path><path d="M1115.8 396L1151.1 343L1108.8 317Z" fill="#00101c" stroke="#00101c"></path><path d="M199.9 520L194.9 586L277.2 553Z" fill="#1d4e6b" stroke="#1d4e6b"></path><path d="M280.2 658L284.2 714L345.5 714Z" fill="#297ea6" stroke="#297ea6"></path><path d="M137.6 522L194.9 586L199.9 520Z" fill="#277297" stroke="#277297"></path><path d="M123.6 327L133.6 383L196.9 332Z" fill="#0c2435" stroke="#0c2435"></path><path d="M1067.8 118L1074.8 68L1026.5 103Z" fill="#00101c" stroke="#00101c"></path><path d="M1180.1 107L1074.8 68L1067.8 118Z" fill="#277297" stroke="#277297"></path><path d="M216.9 651L284.2 714L280.2 658Z" fill="#0c2435" stroke="#0c2435"></path><path d="M1167.1 487L1100.8 517L1155.1 600Z" fill="#297ea6" stroke="#297ea6"></path><path d="M1100.8 517L1151.1 455L1110.8 432Z" fill="#081a28" stroke="#081a28"></path><path d="M127.6 104L157.6 169L228.9 136Z" fill="#205a7a" stroke="#205a7a"></path><path d="M152.6 268L123.6 327L196.9 332Z" fill="#205a7a" stroke="#205a7a"></path><path d="M70.3 362L123.6 327L67.3 341Z" fill="#0c2435" stroke="#0c2435"></path><path d="M194.9 586L216.9 651L277.2 553Z" fill="#19435d" stroke="#19435d"></path><path d="M1151.1 455L1167.1 409L1110.8 432Z" fill="#15384f" stroke="#15384f"></path><path d="M254.2 768L325.5 768L284.2 714Z" fill="#277297" stroke="#277297"></path><path d="M284.2 714L325.5 768L345.5 714Z" fill="#277297" stroke="#277297"></path><path d="M1151.1 343L1166.1 253L1108.8 317Z" fill="#0c2435" stroke="#0c2435"></path><path d="M1117.8 217L1161.1 202L1067.8 118Z" fill="#246688" stroke="#246688"></path><path d="M1204.4 240L1166.1 253L1221.4 297Z" fill="#15384f" stroke="#15384f"></path><path d="M976.2 768L1017.5 725L945.2 714Z" fill="#297ea6" stroke="#297ea6"></path><path d="M1155.1 600L1100.8 517L1069.8 570Z" fill="#0c2435" stroke="#0c2435"></path><path d="M83.3 426L127.6 472L133.6 383Z" fill="#246688" stroke="#246688"></path><path d="M133.6 383L127.6 472L217.9 429Z" fill="#081a28" stroke="#081a28"></path><path d="M194.9 586L145.6 622L216.9 651Z" fill="#205a7a" stroke="#205a7a"></path><path d="M881.9 768L976.2 768L945.2 714Z" fill="#205a7a" stroke="#205a7a"></path><path d="M1166.1 253L1161.1 202L1117.8 217Z" fill="#112e42" stroke="#112e42"></path><path d="M127.6 472L137.6 522L199.9 520Z" fill="#00101c" stroke="#00101c"></path><path d="M1111.8 641L1030.5 590L1037.5 654Z" fill="#277297" stroke="#277297"></path><path d="M1151.1 455L1211.4 422L1167.1 409Z" fill="#0c2435" stroke="#0c2435"></path><path d="M1100.8 717L1037.5 654L1017.5 725Z" fill="#205a7a" stroke="#205a7a"></path><path d="M1100.8 717L1111.8 641L1037.5 654Z" fill="#112e42" stroke="#112e42"></path><path d="M976.2 768L1021.5 768L1017.5 725Z" fill="#1d4e6b" stroke="#1d4e6b"></path><path d="M70.3 362L83.3 426L133.6 383Z" fill="#00101c" stroke="#00101c"></path><path d="M91.3 550L111.6 565L137.6 522Z" fill="#0c2435" stroke="#0c2435"></path><path d="M70.3 362L133.6 383L123.6 327Z" fill="#19435d" stroke="#19435d"></path><path d="M1111.8 641L1155.1 600L1069.8 570Z" fill="#15384f" stroke="#15384f"></path><path d="M1158.1 625L1155.1 600L1111.8 641Z" fill="#081a28" stroke="#081a28"></path><path d="M1221.4 297L1166.1 253L1151.1 343Z" fill="#00101c" stroke="#00101c"></path><path d="M1166.1 253L1204.4 240L1161.1 202Z" fill="#112e42" stroke="#112e42"></path><path d="M1183.1 77L1116.8 0L1074.8 68Z" fill="#0c2435" stroke="#0c2435"></path><path d="M1241.4 383L1151.1 343L1167.1 409Z" fill="#112e42" stroke="#112e42"></path><path d="M1211.4 422L1151.1 455L1167.1 487Z" fill="#277297" stroke="#277297"></path><path d="M111.6 565L194.9 586L137.6 522Z" fill="#112e42" stroke="#112e42"></path><path d="M111.6 565L145.6 622L194.9 586Z" fill="#081a28" stroke="#081a28"></path><path d="M216.9 651L198.9 708L284.2 714Z" fill="#19435d" stroke="#19435d"></path><path d="M1206.4 503L1211.4 422L1167.1 487Z" fill="#1d4e6b" stroke="#1d4e6b"></path><path d="M226.9 65L127.6 104L228.9 136Z" fill="#0c2435" stroke="#0c2435"></path><path d="M67.3 341L123.6 327L45.3 265Z" fill="#1d4e6b" stroke="#1d4e6b"></path><path d="M127.6 40L127.6 104L226.9 65Z" fill="#205a7a" stroke="#205a7a"></path><path d="M284.2 0L189.9 0L226.9 65Z" fill="#1d4e6b" stroke="#1d4e6b"></path><path d="M145.6 622L198.9 708L216.9 651Z" fill="#1d4e6b" stroke="#1d4e6b"></path><path d="M198.9 708L254.2 768L284.2 714Z" fill="#205a7a" stroke="#205a7a"></path><path d="M123.6 327L152.6 268L45.3 265Z" fill="#246688" stroke="#246688"></path><path d="M91.3 550L137.6 522L127.6 472Z" fill="#297ea6" stroke="#297ea6"></path><path d="M45.3 265L152.6 268L56.3 193Z" fill="#00101c" stroke="#00101c"></path><path d="M1241.4 383L1221.4 297L1151.1 343Z" fill="#297ea6" stroke="#297ea6"></path><path d="M1155.1 600L1206.4 503L1167.1 487Z" fill="#277297" stroke="#277297"></path><path d="M1211.4 422L1241.4 383L1167.1 409Z" fill="#00101c" stroke="#00101c"></path><path d="M1136.1 685L1158.1 625L1111.8 641Z" fill="#297ea6" stroke="#297ea6"></path><path d="M1155.1 600L1215.4 614L1206.4 503Z" fill="#19435d" stroke="#19435d"></path><path d="M1294.7 256L1213.4 207L1204.4 240Z" fill="#00101c" stroke="#00101c"></path><path d="M1204.4 240L1213.4 207L1161.1 202Z" fill="#081a28" stroke="#081a28"></path><path d="M1180.1 107L1067.8 118L1161.1 202Z" fill="#112e42" stroke="#112e42"></path><path d="M1074.8 68L1116.8 0L1003.5 0Z" fill="#297ea6" stroke="#297ea6"></path><path d="M1213.4 207L1180.1 107L1161.1 202Z" fill="#277297" stroke="#277297"></path><path d="M1083.8 768L1100.8 717L1017.5 725Z" fill="#112e42" stroke="#112e42"></path><path d="M45.3 521L91.3 550L127.6 472Z" fill="#081a28" stroke="#081a28"></path><path d="M111.6 565L84.3 616L145.6 622Z" fill="#0c2435" stroke="#0c2435"></path><path d="M120.6 768L194.9 768L198.9 708Z" fill="#205a7a" stroke="#205a7a"></path><path d="M84.3 616L91.3 550L0 564Z" fill="#0c2435" stroke="#0c2435"></path><path d="M127.6 472L83.3 426L45.3 521Z" fill="#112e42" stroke="#112e42"></path><path d="M1100.8 717L1136.1 685L1111.8 641Z" fill="#081a28" stroke="#081a28"></path><path d="M1158.1 625L1215.4 614L1155.1 600Z" fill="#112e42" stroke="#112e42"></path><path d="M1283.7 402L1241.4 383L1211.4 422Z" fill="#19435d" stroke="#19435d"></path><path d="M1289.7 185L1245.4 116L1213.4 207Z" fill="#0c2435" stroke="#0c2435"></path><path d="M189.9 0L127.6 40L226.9 65Z" fill="#15384f" stroke="#15384f"></path><path d="M56.3 193L152.6 268L157.6 169Z" fill="#15384f" stroke="#15384f"></path><path d="M1245.4 116L1183.1 77L1180.1 107Z" fill="#0c2435" stroke="#0c2435"></path><path d="M1180.1 107L1183.1 77L1074.8 68Z" fill="#19435d" stroke="#19435d"></path><path d="M56.3 193L157.6 169L127.6 104Z" fill="#246688" stroke="#246688"></path><path d="M0 372L83.3 426L70.3 362Z" fill="#205a7a" stroke="#205a7a"></path><path d="M1021.5 768L1083.8 768L1017.5 725Z" fill="#19435d" stroke="#19435d"></path><path d="M1161.1 768L1210.4 686L1136.1 685Z" fill="#112e42" stroke="#112e42"></path><path d="M56.3 108L56.3 193L127.6 104Z" fill="#15384f" stroke="#15384f"></path><path d="M198.9 708L194.9 768L254.2 768Z" fill="#112e42" stroke="#112e42"></path><path d="M111.6 717L198.9 708L145.6 622Z" fill="#081a28" stroke="#081a28"></path><path d="M1183.1 77L1157.1 0L1116.8 0Z" fill="#19435d" stroke="#19435d"></path><path d="M45.3 521L83.3 426L0 436Z" fill="#00101c" stroke="#00101c"></path><path d="M91.3 550L84.3 616L111.6 565Z" fill="#246688" stroke="#246688"></path><path d="M0 372L70.3 362L67.3 341Z" fill="#19435d" stroke="#19435d"></path><path d="M189.9 0L120.6 0L127.6 40Z" fill="#1d4e6b" stroke="#1d4e6b"></path><path d="M127.6 40L73.3 84L127.6 104Z" fill="#1d4e6b" stroke="#1d4e6b"></path><path d="M63.3 0L73.3 84L127.6 40Z" fill="#205a7a" stroke="#205a7a"></path><path d="M1210.4 686L1215.4 614L1158.1 625Z" fill="#112e42" stroke="#112e42"></path><path d="M1283.7 497L1283.7 402L1211.4 422Z" fill="#15384f" stroke="#15384f"></path><path d="M1254.4 595L1215.4 614L1279.7 626Z" fill="#1d4e6b" stroke="#1d4e6b"></path><path d="M0 112L56.3 108L0 78Z" fill="#081a28" stroke="#081a28"></path><path d="M73.3 84L56.3 108L127.6 104Z" fill="#081a28" stroke="#081a28"></path><path d="M0 279L0 328L45.3 265Z" fill="#00101c" stroke="#00101c"></path><path d="M1283.7 497L1211.4 422L1206.4 503Z" fill="#081a28" stroke="#081a28"></path><path d="M1304.7 327L1294.7 256L1221.4 297Z" fill="#277297" stroke="#277297"></path><path d="M1213.4 207L1245.4 116L1180.1 107Z" fill="#0c2435" stroke="#0c2435"></path><path d="M1294.7 256L1204.4 240L1221.4 297Z" fill="#1d4e6b" stroke="#1d4e6b"></path><path d="M1183.1 77L1237.4 53L1157.1 0Z" fill="#00101c" stroke="#00101c"></path><path d="M0 279L45.3 265L0 184Z" fill="#1d4e6b" stroke="#1d4e6b"></path><path d="M45.3 265L0 328L67.3 341Z" fill="#1d4e6b" stroke="#1d4e6b"></path><path d="M0 328L0 372L67.3 341Z" fill="#205a7a" stroke="#205a7a"></path><path d="M0 184L45.3 265L56.3 193Z" fill="#112e42" stroke="#112e42"></path><path d="M92.3 768L111.6 717L54.3 722Z" fill="#19435d" stroke="#19435d"></path><path d="M84.3 616L111.6 717L145.6 622Z" fill="#19435d" stroke="#19435d"></path><path d="M0 372L0 436L83.3 426Z" fill="#112e42" stroke="#112e42"></path><path d="M45.3 521L0 564L91.3 550Z" fill="#205a7a" stroke="#205a7a"></path><path d="M1254.4 595L1283.7 497L1206.4 503Z" fill="#19435d" stroke="#19435d"></path><path d="M1304.7 327L1221.4 297L1241.4 383Z" fill="#246688" stroke="#246688"></path><path d="M1304.7 327L1241.4 383L1283.7 402Z" fill="#297ea6" stroke="#297ea6"></path><path d="M1215.4 614L1254.4 595L1206.4 503Z" fill="#0c2435" stroke="#0c2435"></path><path d="M1210.4 686L1158.1 625L1136.1 685Z" fill="#00101c" stroke="#00101c"></path><path d="M1161.1 768L1136.1 685L1100.8 717Z" fill="#1d4e6b" stroke="#1d4e6b"></path><path d="M1366 329L1304.7 327L1366 393Z" fill="#205a7a" stroke="#205a7a"></path><path d="M1312.7 85L1237.4 53L1245.4 116Z" fill="#297ea6" stroke="#297ea6"></path><path d="M1245.4 116L1237.4 53L1183.1 77Z" fill="#00101c" stroke="#00101c"></path><path d="M1307.7 105L1289.7 185L1366 146Z" fill="#112e42" stroke="#112e42"></path><path d="M1294.7 256L1289.7 185L1213.4 207Z" fill="#19435d" stroke="#19435d"></path><path d="M56.3 108L0 184L56.3 193Z" fill="#112e42" stroke="#112e42"></path><path d="M0 112L0 184L56.3 108Z" fill="#112e42" stroke="#112e42"></path><path d="M1083.8 768L1161.1 768L1100.8 717Z" fill="#297ea6" stroke="#297ea6"></path><path d="M0 436L0 536L45.3 521Z" fill="#277297" stroke="#277297"></path><path d="M92.3 768L120.6 768L111.6 717Z" fill="#205a7a" stroke="#205a7a"></path><path d="M111.6 717L120.6 768L198.9 708Z" fill="#0c2435" stroke="#0c2435"></path><path d="M120.6 0L63.3 0L127.6 40Z" fill="#081a28" stroke="#081a28"></path><path d="M0 536L0 564L45.3 521Z" fill="#112e42" stroke="#112e42"></path><path d="M1237.4 53L1233.4 0L1157.1 0Z" fill="#19435d" stroke="#19435d"></path><path d="M1276.7 0L1233.4 0L1237.4 53Z" fill="#205a7a" stroke="#205a7a"></path><path d="M1366 471L1320.7 458L1366 519Z" fill="#112e42" stroke="#112e42"></path><path d="M1283.7 497L1320.7 458L1283.7 402Z" fill="#112e42" stroke="#112e42"></path><path d="M1366 185L1289.7 185L1294.7 256Z" fill="#1d4e6b" stroke="#1d4e6b"></path><path d="M1311.7 590L1283.7 497L1254.4 595Z" fill="#297ea6" stroke="#297ea6"></path><path d="M0 78L56.3 108L73.3 84Z" fill="#277297" stroke="#277297"></path><path d="M1210.4 686L1279.7 626L1215.4 614Z" fill="#205a7a" stroke="#205a7a"></path><path d="M1316.7 682L1279.7 626L1210.4 686Z" fill="#246688" stroke="#246688"></path><path d="M54.3 722L111.6 717L84.3 616Z" fill="#205a7a" stroke="#205a7a"></path><path d="M63.3 0L0 78L73.3 84Z" fill="#112e42" stroke="#112e42"></path><path d="M0 663L54.3 722L84.3 616Z" fill="#00101c" stroke="#00101c"></path><path d="M1161.1 768L1211.4 768L1210.4 686Z" fill="#297ea6" stroke="#297ea6"></path><path d="M1312.7 85L1307.7 105L1366 81Z" fill="#277297" stroke="#277297"></path><path d="M1289.7 185L1307.7 105L1245.4 116Z" fill="#297ea6" stroke="#297ea6"></path><path d="M1279.7 626L1311.7 590L1254.4 595Z" fill="#205a7a" stroke="#205a7a"></path><path d="M1316.7 682L1311.7 590L1279.7 626Z" fill="#246688" stroke="#246688"></path><path d="M1366 269L1294.7 256L1304.7 327Z" fill="#297ea6" stroke="#297ea6"></path><path d="M1307.7 105L1312.7 85L1245.4 116Z" fill="#277297" stroke="#277297"></path><path d="M0 564L0 663L84.3 616Z" fill="#0c2435" stroke="#0c2435"></path><path d="M54.3 722L0 768L92.3 768Z" fill="#205a7a" stroke="#205a7a"></path><path d="M1312.7 85L1276.7 0L1237.4 53Z" fill="#15384f" stroke="#15384f"></path><path d="M1366 393L1283.7 402L1320.7 458Z" fill="#112e42" stroke="#112e42"></path><path d="M1366 393L1304.7 327L1283.7 402Z" fill="#0c2435" stroke="#0c2435"></path><path d="M1366 471L1366 393L1320.7 458Z" fill="#246688" stroke="#246688"></path><path d="M0 663L0 679L54.3 722Z" fill="#205a7a" stroke="#205a7a"></path><path d="M1366 329L1366 269L1304.7 327Z" fill="#15384f" stroke="#15384f"></path><path d="M1366 519L1320.7 458L1283.7 497Z" fill="#00101c" stroke="#00101c"></path><path d="M63.3 0L0 0L0 78Z" fill="#19435d" stroke="#19435d"></path><path d="M1366 269L1366 185L1294.7 256Z" fill="#1d4e6b" stroke="#1d4e6b"></path><path d="M1312.7 85L1366 0L1276.7 0Z" fill="#00101c" stroke="#00101c"></path><path d="M1366 577L1366 519L1311.7 590Z" fill="#205a7a" stroke="#205a7a"></path><path d="M1311.7 590L1366 519L1283.7 497Z" fill="#112e42" stroke="#112e42"></path><path d="M1366 185L1366 146L1289.7 185Z" fill="#15384f" stroke="#15384f"></path><path d="M1314.7 768L1316.7 682L1210.4 686Z" fill="#297ea6" stroke="#297ea6"></path><path d="M1366 665L1366 577L1311.7 590Z" fill="#246688" stroke="#246688"></path><path d="M1366 146L1366 81L1307.7 105Z" fill="#1d4e6b" stroke="#1d4e6b"></path><path d="M0 679L0 768L54.3 722Z" fill="#205a7a" stroke="#205a7a"></path><path d="M1366 678L1366 665L1316.7 682Z" fill="#297ea6" stroke="#297ea6"></path><path d="M1316.7 682L1366 665L1311.7 590Z" fill="#081a28" stroke="#081a28"></path><path d="M1211.4 768L1314.7 768L1210.4 686Z" fill="#1d4e6b" stroke="#1d4e6b"></path><path d="M1366 768L1366 678L1316.7 682Z" fill="#205a7a" stroke="#205a7a"></path><path d="M1366 81L1366 0L1312.7 85Z" fill="#1d4e6b" stroke="#1d4e6b"></path><path d="M1314.7 768L1366 768L1316.7 682Z" fill="#297ea6" stroke="#297ea6"></path></g></svg>